<?xml version="1.0" standalone="no"?><!DOCTYPE svg PUBLIC "-//W3C//DTD SVG 1.1//EN" "http://www.w3.org/Graphics/SVG/1.1/DTD/svg11.dtd"><svg t="1610612101434" class="icon" viewBox="0 0 1024 1024" version="1.1" xmlns="http://www.w3.org/2000/svg" p-id="26067" xmlns:xlink="http://www.w3.org/1999/xlink" width="200" height="200"><defs><style type="text/css"></style></defs><path d="M512 368c79.6 0 144 64.4 144 144s-64.4 144-144 144-144-64.4-144-144 64.4-144 144-144zM368 160c0 79.6 64.4 144 144 144s144-64.4 144-144S591.6 16 512 16 368 80.4 368 160z m0 704c0 79.6 64.4 144 144 144s144-64.4 144-144-64.4-144-144-144-144 64.4-144 144z" p-id="26068"></path></svg>