<?xml version="1.0" standalone="no"?><!DOCTYPE svg PUBLIC "-//W3C//DTD SVG 1.1//EN" "http://www.w3.org/Graphics/SVG/1.1/DTD/svg11.dtd"><svg t="1611639708397" class="icon" viewBox="0 0 1024 1024" version="1.1" xmlns="http://www.w3.org/2000/svg" p-id="7935" xmlns:xlink="http://www.w3.org/1999/xlink" width="200" height="200"><defs><style type="text/css"></style></defs><path d="M512 639.767273c-23.970909 0-47.941818 23.970909-47.941818 47.941818s23.970909 47.941818 47.941818 47.941818 47.941818-23.970909 47.941818-47.941818c0-31.976727-15.965091-47.941818-47.941818-47.941818z m-71.912727-47.965091s0-7.982545 0 0l-23.994182-7.982546s-7.982545 0-7.982546 7.982546v7.982545l31.953455-7.982545z" p-id="7936"></path><path d="M631.877818 607.790545h-47.941818c-15.988364 0-23.970909-31.976727-31.976727-31.976727h-71.912728c-8.005818 0-15.988364 31.976727-31.976727 31.976727h-47.941818c-8.005818 0-16.011636 7.982545-16.011636 15.988364v135.866182c0 7.982545 8.005818 7.982545 15.988363 7.982545h223.790546c7.982545 0 15.988364-7.982545 15.988363-15.988363V615.796364s0-7.982545-8.005818-7.982546zM512 743.656727c-31.976727 0-63.930182-23.970909-63.930182-63.930182 0-31.976727 23.970909-63.953455 63.930182-63.953454 31.976727 0 63.930182 23.970909 63.930182 63.953454 0 39.959273-23.970909 63.930182-63.930182 63.930182z m79.918545-103.889454c-7.982545 0-7.982545-8.005818 0 0-7.982545-8.005818-7.982545-15.988364 0-15.988364 0 0 8.005818 0 0 15.988364 8.005818-8.005818 0 0 0 0z" p-id="7937"></path><path d="M815.709091 280.110545c55.947636 0 103.889455 47.941818 103.889454 103.889455 0 55.947636-47.941818 103.912727-103.889454 103.912727-55.947636 0-103.912727-47.941818-103.912727-103.912727 0-55.947636 39.959273-103.889455 103.912727-103.889455zM488.029091 176.174545c63.930182-15.965091 135.866182 15.988364 167.819636 79.941819 15.988364 55.947636 8.005818 111.872-23.970909 159.837091-23.970909 31.976727-55.947636 47.941818-87.901091 55.947636-47.941818 7.982545-87.924364 0-119.901091-31.976727-39.959273-31.976727-55.924364-71.912727-55.924363-111.895273 0-71.912727 47.941818-135.866182 119.854545-151.854546zM208.290909 280.110545c55.947636 0 103.912727 47.941818 103.912727 103.889455 0 55.947636-47.941818 103.912727-103.912727 103.912727-55.947636 0-103.889455-47.941818-103.889454-103.912727 0-55.947636 47.941818-103.889455 103.889454-103.889455zM0.488727 735.650909v-15.965091c0-31.976727 8.005818-63.953455 23.970909-95.906909 23.994182-39.959273 55.970909-63.953455 95.930182-79.918545 31.953455-15.988364 71.912727-15.988364 103.889455-15.988364 23.970909 0 55.947636 7.982545 79.918545 15.988364 0 0 8.005818 0 8.005818 7.982545-63.953455 47.941818-103.912727 111.895273-119.901091 183.808H0.488727z m799.232 87.924364H232.261818s-7.982545 0-7.982545-7.982546c0-39.959273 0-79.941818 15.988363-119.901091 23.970909-79.918545 79.918545-135.866182 159.837091-159.837091 31.976727 0 63.953455-7.982545 87.924364-7.982545h71.912727c63.953455 7.982545 119.901091 31.953455 167.842909 79.918545 31.976727 31.976727 47.941818 71.912727 63.953455 111.895273 7.982545 39.959273 15.965091 71.912727 7.982545 103.889455z m23.970909-87.924364c-15.988364-79.918545-47.941818-143.848727-119.877818-183.808 0 0 7.982545 0 7.982546-7.982545 23.970909-8.005818 47.941818-15.988364 79.941818-15.988364 31.953455 0 71.912727 0 103.889454 15.988364 39.959273 15.965091 79.918545 39.959273 95.883637 79.918545 16.011636 31.953455 23.994182 63.930182 23.994182 95.883636v15.988364h-191.813819z" p-id="7938"></path></svg>