<?xml version="1.0" standalone="no"?><!DOCTYPE svg PUBLIC "-//W3C//DTD SVG 1.1//EN" "http://www.w3.org/Graphics/SVG/1.1/DTD/svg11.dtd"><svg t="1611639697641" class="icon" viewBox="0 0 1024 1024" version="1.1" xmlns="http://www.w3.org/2000/svg" p-id="7655" xmlns:xlink="http://www.w3.org/1999/xlink" width="200" height="200"><defs><style type="text/css"></style></defs><path d="M458.752 284.4444448c0.27306667-8.46506667 1.72942187-16.83911147 4.36906667-24.9856L298.23431147 94.57208853 185.59431147 207.21208853 238.47822187 260.096 214.08426667 284.4444448h244.66773333z m-323.72053333 0.91022187l-13.78986667-13.7443552a91.02222187 91.02222187 0 0 1 0-128.75093334L233.92711147 30.21937813a91.02222187 91.02222187 0 0 1 128.75093333 0l157.9235552 157.9235552 157.8780448-157.9235552a91.02222187 91.02222187 0 0 1 128.70542187 0L919.7795552 142.90488853a91.02222187 91.02222187 0 0 1 0 128.75093334l-16.8391104 16.83911146A91.02222187 91.02222187 0 0 1 967.11111147 375.46666667v182.0444448a91.02222187 91.02222187 0 0 1-91.02222294 91.02222186h-318.57777706v273.06666667h227.5555552v-270.1539552h91.02222186V921.6a91.02222187 91.02222187 0 0 1-91.02222186 91.02222187H238.93333333a91.02222187 91.02222187 0 0 1-91.02222186-91.02222187v-270.60906667l91.02222186 0.04551147V921.6h227.5555552v-273.06666667H147.91111147a91.02222187 91.02222187 0 0 1-91.02222294-91.02222186V375.46666667a91.02222187 91.02222187 0 0 1 78.14257814-90.112zM801.5872 284.4444448l-11.6963552-11.69635627 65.536-65.536-112.64-112.64-164.88675627 164.88675627c2.6396448 8.14648853 4.096 16.52053333 4.41457814 24.9856h219.27253333zM557.51111147 375.46666667v182.0444448h318.57777706V375.46666667h-318.57777706z m-91.02222294 182.0444448V375.46666667H147.91111147v182.0444448h318.57777706z" p-id="7656"></path></svg>