<?xml version="1.0" standalone="no"?><!DOCTYPE svg PUBLIC "-//W3C//DTD SVG 1.1//EN" "http://www.w3.org/Graphics/SVG/1.1/DTD/svg11.dtd"><svg t="1611639702282" class="icon" viewBox="0 0 1024 1024" version="1.1" xmlns="http://www.w3.org/2000/svg" p-id="7795" xmlns:xlink="http://www.w3.org/1999/xlink" width="200" height="200"><defs><style type="text/css"></style></defs><path d="M669.50937406 32.10907812c16.47085594 0 30.14930156 12.32587219 32.15634563 28.31678251l0.21815719 4.07953687v61.91296406h74.39154656a139.18418344 139.18418344 0 0 1 138.39881812 124.45858406l0.56720813 7.286445 0.15271031 7.43915438v151.18282031a32.39631844 32.39631844 0 0 1-32.39631844 32.48358094l-2.39972812-0.174525c-0.71991844 0-1.11260063-0.15271031-1.04715375-0.30541969l-2.70514688 0.30541969-2.7269625 0.174525H96.84717688V852.81581656a74.17338937 74.17338937 0 0 0 13.52573531 42.62788313l3.92682656 5.12668969 4.38495656 4.79945531a74.39154656 74.39154656 0 0 0 46.07476406 21.59754562l6.54471094 0.23997282H472.51357812a32.39631844 32.39631844 0 0 1 3.99227344 64.55266406l-3.99227344 0.23997281H171.2387225a139.18418344 139.18418344 0 0 1-138.94421062-130.69787531L32.05453906 852.81581656V265.68980844a139.18418344 139.18418344 0 0 1 130.69787531-138.96602719l8.48630813-0.21815719h91.99681875l0.06544687-61.91296406c0-15.205545 10.40609063-27.83683687 24.41177157-31.43642812l3.99227343-0.7199175 3.99227438-0.23997282c16.49267156 0 30.17111719 12.30405656 32.15634562 28.31678157l0.23997282 4.07953687v61.91296406h308.84490375V64.5053975c0-15.205545 10.40609063-27.83683687 24.47721843-31.43642813l3.92682657-0.71991843 3.99227343-0.23997282h0.17452594z m71.18463844 467.946825c135.84638062 0 245.97204844 110.12566781 245.97204844 245.97204844S876.54039313 992 740.6940125 992s-245.97204844-110.12566781-245.97204937-245.97204844S604.84763094 500.05590313 740.6940125 500.05590313z m0 64.79263688a181.17941156 181.17941156 0 1 0 0 362.35882313 181.17941156 181.17941156 0 0 0 0-362.35882313z m-329.24258625 175.57277531a32.39631844 32.39631844 0 0 1 3.99227344 64.57448063l-3.99227344 0.21815719H215.72094125a32.39631844 32.39631844 0 0 1-4.01409-64.552665l4.01409-0.21815625h195.730485z m329.32984875-138.76968468a32.28724031 32.28724031 0 0 1 32.06908312 28.3167825l0.32723532 3.99227343-0.0872625 88.70264719h38.87558156c15.11828156 0 27.83683687 10.40609063 31.34916562 24.41177156l0.80718094 3.92682657 0.23997281 3.99227343c0 16.36177688-12.17316187 30.12748594-28.404045 32.15634563l-3.99227437 0.30541969h-71.1846375c-16.36177688 0-30.14930156-12.17316187-32.15634563-28.38222938l-0.23997281-4.01408906v-121.09896563c0-17.91069188 14.46381094-32.39631844 32.39631844-32.39631843v0.0872625zM411.53868875 562.44881281a32.39631844 32.39631844 0 0 1 3.99227344 64.55266407l-3.99227344 0.23997281H215.72094125a32.39631844 32.39631844 0 0 1-4.01409-64.46540157l4.01409-0.23997281h195.730485l0.0872625-0.0872625zM263.30098812 191.29826187H171.2387225c-17.45256188 0-34.35973219 6.13021219-47.75457281 17.34348376l-4.79945438 4.40677125a74.39154656 74.39154656 0 0 0-21.59754656 46.074765l-0.23997187 6.54471v118.89557999h753.75434531v-118.96102687c0-17.45256188-6.15202781-34.35973219-17.36529938-47.75457281l-4.38495562-4.79945532a74.39154656 74.39154656 0 0 0-46.07476406-21.59754562l-6.47926407-0.23997281h-74.39154656v47.66731125a32.39631844 32.39631844 0 0 1-64.57447969 4.01408906l-0.21815718-4.01408906V191.29826187H328.02817906l0.06544688 47.66731032c0 16.31814562-12.107715 30.10566937-28.3167825 32.15634562l-4.07953594 0.23997282c-16.31814562 0-30.10566937-12.12953063-32.15634656-28.3167825l-0.21815625-3.99227344v-47.77638844z" p-id="7796"></path></svg>