<?xml version="1.0" standalone="no"?><!DOCTYPE svg PUBLIC "-//W3C//DTD SVG 1.1//EN" "http://www.w3.org/Graphics/SVG/1.1/DTD/svg11.dtd"><svg t="1611639691655" class="icon" viewBox="0 0 1024 1024" version="1.1" xmlns="http://www.w3.org/2000/svg" p-id="7514" xmlns:xlink="http://www.w3.org/1999/xlink" width="200" height="200"><defs><style type="text/css"></style></defs><path d="M949.60727281 206.72c-43.2-81.88363594-120.72-126.63272719-224.11636406-129.38181844-68.72727281-1.85454563-147.66545437 16.01454563-218.61818156 49.13454563C349.67272719 52.68363594 148.57454562 46.77090875 64.18181844 206.72a359.56363594 359.56363594 0 0 0-30.06545438 76.21090875 33.73090875 33.73090875 0 0 0 65.12727188 17.32363687A300.65454562 300.65454562 0 0 1 123.81090875 238.18181844c75.64363594-143.38909125 273.09818156-91.85454563 367.06909125-44.6181825 4.71272719 2.4 11.71636406 3.62181844 16.99636406 3.62181844 5.23636406 0 10.40727281-1.2 15.12-3.62181844 65.01818156-32.77090875 138.15272719-50.85818156 200.74909031-48.87272719 78.72 2.07272719 134.61818156 33.53454562 166.21090969 93.38181844 142.18909125 269.28-213.14181844 540.85090875-372.54545531 645.12a19.92 19.92 0 0 1-21.16363594 0C376.74909125 805.01818156 174.56 651.85454562 110.32727281 476h115.33090875l50.66181844 110.61818156c5.36727281 11.84727281 17.21454562 19.52727281 30.26181844 19.63636407h0.43636312c12.82909125 0 24.65454563-7.35272719 30.26181844-18.87272719l99.86181844-204.24 4.38545437 9.53454562a33.70909125 33.70909125 0 1 0 61.39636313-27.84l-33.97090875-74.68363687a33.62181844 33.62181844 0 0 0-30.15272719-19.72363594h-0.43636406c-12.82909125 0-24.65454563 7.35272719-30.2618175 18.85090875l-99.99272719 204.48-30.04363688-65.34545438c-5.47636406-11.95636406-17.43272719-19.63636406-30.58909031-19.63636406H66.69090875a33.77454563 33.77454563 0 0 0-33.12 40.58181844c-0.10909125 3.27272719 0 6.56727281 0.87272719 9.97090875 54.50181844 211.70181844 289.68 391.85454563 424.97454562 480.43636406a86.29090875 86.29090875 0 0 0 47.45454563 14.02909125c17.10545438 0 33.44727281-4.82181844 47.47636406-14.02909125 174.87272719-114.34909125 563.32363594-414.76363594 395.25818156-733.04727281z" p-id="7515"></path><path d="M474.10181844 458.54545437a31.35272719 31.35272719 0 1 0 62.70545437 0 31.35272719 31.35272719 0 0 0-62.70545437 0z m37.26545437 87.62181844l45.51272719 100.10181844c5.14909125 11.38909125 16.23272719 18.98181844 28.71272719 19.72363594h1.87636406c11.82545437 0 22.8-6.13090875 28.93090875-16.34181844l97.59272719-162.58909031h118.08a33.77454563 33.77454563 0 0 0 0-67.52727282h-137.17090875c-11.82545437 0-22.8 6.24-28.93090969 16.34181844l-74.33454469 124.1018175-18.98181844-41.67272719a33.66545438 33.66545438 0 1 0-61.28727281 27.86181844z" p-id="7516"></path></svg>